<svg width="1280" height="306" viewBox="0 0 1280 306" fill="none" xmlns="http://www.w3.org/2000/svg">
<path d="M112.337 304.615C109.086 303.997 107.135 302.966 104.751 300.552C102.428 298.227 101.282 296.077 100.632 292.81C100.384 291.544 100.291 279.532 100.291 251.005C100.291 215.265 100.229 210.908 99.7959 210.319L99.3314 209.671H56.3499C14.2665 209.671 13.3375 209.671 10.9221 209.082C8.19709 208.405 7.11327 207.816 4.48112 205.52C3.1186 204.343 2.3754 203.371 1.38448 201.457L0.114849 198.926L0.0219538 152.558C-0.0399791 117.406 0.0219519 105.866 0.30065 104.865C1.10578 102.039 2.3754 99.8602 4.41919 97.9172C5.81268 96.5924 6.64877 96.033 7.1752 96.033C7.60873 96.033 8.07323 95.9153 8.16613 95.7386C8.44483 95.3265 12.2227 94.2666 13.4304 94.2666C14.0188 94.2666 14.5762 94.1489 14.6691 93.9722C14.793 93.7661 29.3472 93.6778 57.2789 93.6778H99.672L99.9817 92.9124C100.167 92.4413 100.291 77.5742 100.291 52.5797C100.291 13.8367 100.353 11.2754 101.251 9.71511C101.406 9.42071 101.53 8.97911 101.53 8.74359C101.53 6.094 108.126 0.647607 111.346 0.647607C111.904 0.647607 112.43 0.529848 112.523 0.353208C112.802 -0.0883912 203.781 -0.0589494 205.949 0.38265C209.727 1.14809 213.598 3.47384 215.518 6.12344C216.013 6.83 216.787 8.27255 217.19 9.33239L217.964 11.246V33.061C217.964 56.2596 217.964 56.1713 216.508 56.7307C216.199 56.8485 213.598 57.0545 210.687 57.2017C203.131 57.555 200.313 57.9083 195.637 59.0565C191.735 60.028 189.846 60.6462 186.254 62.1477C185.418 62.5009 184.675 62.707 184.582 62.6187C184.489 62.5304 184.21 62.6481 183.932 62.8836C183.436 63.2664 179.287 65.7099 179.101 65.7099C178.76 65.7099 173.868 69.2427 171.483 71.2151C162.472 78.6046 154.421 90.8516 151.262 102.039C145.502 122.235 149.187 143.785 161.326 161.184C161.977 162.126 162.534 162.979 162.534 163.068C162.534 163.156 162.906 163.657 163.401 164.186C163.865 164.716 164.794 165.835 165.476 166.689C169.625 171.841 179.875 182.057 184.582 185.736C190.156 190.035 199.074 198.396 202.635 202.606C206.351 206.992 210.532 212.821 210.532 213.587C210.532 213.852 210.656 214.146 210.842 214.234C210.996 214.323 211.585 215.294 212.111 216.384C212.638 217.473 213.288 218.709 213.505 219.121C215.27 222.36 217.159 229.396 217.654 234.548C217.995 238.14 218.15 257.599 217.84 257.894C217.53 258.159 217.623 288.865 217.933 288.865C218.181 288.865 218.15 289.66 217.778 293.222C217.685 294.046 217.406 294.929 217.19 295.165C216.942 295.371 216.818 295.636 216.911 295.724C217.004 295.812 216.818 296.49 216.477 297.226C215.61 299.08 211.956 302.466 209.82 303.408C205.887 305.115 207.497 305.057 158.911 305.027C123.33 304.998 113.979 304.909 112.337 304.615Z" fill="#4BB5B7"/>
<path d="M234.066 245.146C234.066 242.556 234.097 242.349 234.686 242.349C235.274 242.349 235.305 242.556 235.305 245.146C235.305 247.737 235.274 247.943 234.686 247.943C234.097 247.943 234.066 247.737 234.066 245.146Z" fill="#4BB5B7"/>
<path d="M233.323 236.55C233.261 236.255 233.076 235.284 232.983 234.401C232.58 231.457 230.908 224.833 229.452 220.564C229.112 219.504 228.802 218.621 228.802 218.591C228.802 218.533 229.143 218.503 229.576 218.503C230.227 218.503 230.35 218.65 230.35 219.386C230.35 219.887 230.505 220.27 230.66 220.27C230.846 220.27 230.97 220.741 230.97 221.3C230.97 221.859 231.094 222.33 231.218 222.33C231.589 222.33 232.208 224.391 232.208 225.539C232.208 226.04 232.363 226.452 232.518 226.452C232.704 226.452 232.828 227.041 232.828 227.747C232.828 228.454 232.952 229.102 233.106 229.16C233.416 229.278 234.376 234.312 234.376 235.932C234.376 237.109 233.633 237.551 233.323 236.55Z" fill="#4BB5B7"/>
<path d="M224.993 210.702L224.467 209.671H225.396C226.263 209.671 226.325 209.76 226.325 210.702C226.325 211.349 226.17 211.732 225.922 211.732C225.705 211.732 225.272 211.261 224.993 210.702Z" fill="#4BB5B7"/>
<path d="M217.345 199.161C216.787 198.366 215.889 197.306 215.363 196.806L214.434 195.834H215.518C216.818 195.834 217.345 196.276 217.345 197.336C217.345 197.954 217.499 198.16 218.057 198.248C218.614 198.307 218.769 198.543 218.831 199.456C218.893 200.044 218.8 200.545 218.645 200.545C218.49 200.545 217.902 199.927 217.345 199.161Z" fill="#4BB5B7"/>
<path d="M196.442 177.729L193.965 175.55L195.08 175.521C196.38 175.521 196.907 175.933 196.907 177.052C196.907 177.788 197 177.876 197.991 177.876C199.012 177.876 199.074 177.935 199.074 178.906C199.074 179.466 199.043 179.937 199.012 179.937C198.95 179.937 197.805 178.936 196.442 177.729Z" fill="#4BB5B7"/>
<path d="M191.952 173.931L190.59 172.577H191.704C193.036 172.577 193.562 173.107 193.438 174.343L193.346 175.256L191.952 173.931Z" fill="#4BB5B7"/>
<path d="M185.294 167.601L184.087 166.394H185.232C186.502 166.394 186.812 166.748 186.626 168.014L186.533 168.779L185.294 167.601Z" fill="#4BB5B7"/>
<path d="M181.826 163.922C181.516 163.539 180.525 162.391 179.627 161.419L177.955 159.623H179.07C180.061 159.623 180.185 159.712 180.185 160.359C180.185 160.86 180.34 161.095 180.742 161.095C181.671 161.095 182.972 162.626 182.972 163.686C182.972 164.805 182.6 164.893 181.826 163.922Z" fill="#4BB5B7"/>
<path d="M176.717 157.798C176.128 157.091 175.261 155.973 174.797 155.296L173.992 154.03H174.859C175.788 154.03 176.469 154.501 176.469 155.119C176.469 155.296 176.809 155.796 177.243 156.208C177.769 156.709 178.017 157.268 178.017 158.004C178.017 158.563 177.955 159.034 177.893 159.034C177.831 159.034 177.305 158.475 176.717 157.798Z" fill="#4BB5B7"/>
<path d="M171.824 151.027C171.576 150.644 171.205 150.055 170.988 149.673C170.616 149.025 170.647 148.995 171.607 149.084C172.536 149.172 172.598 149.26 172.691 150.438C172.784 151.822 172.505 151.998 171.824 151.027Z" fill="#4BB5B7"/>
<path d="M351.429 149.761C351.429 148.848 351.522 148.73 352.203 148.73C353.101 148.73 353.132 148.789 352.513 149.908C351.863 151.086 351.429 151.027 351.429 149.761Z" fill="#4BB5B7"/>
<path d="M167.303 143.078C167.21 142.695 166.714 141.606 166.25 140.635C165.785 139.663 165.321 138.515 165.197 138.073C165.011 137.337 165.073 137.249 165.785 137.249C166.436 137.249 166.56 137.396 166.56 138.103C166.56 138.574 166.714 139.015 166.9 139.074C167.365 139.221 168.418 141.9 168.418 142.931C168.418 143.902 167.612 144.02 167.303 143.078Z" fill="#4BB5B7"/>
<path d="M164.423 135.424C164.144 134.511 163.773 133.186 163.339 131.302C163.153 130.595 163.246 130.478 163.835 130.478C164.485 130.478 164.609 130.743 165.104 132.774C165.383 134.011 165.631 135.335 165.631 135.718C165.631 136.719 164.794 136.513 164.423 135.424Z" fill="#4BB5B7"/>
<path d="M358.552 132.833C358.552 132.185 358.706 131.655 358.861 131.655C359.047 131.655 359.171 131.184 359.171 130.625C359.171 130.066 359.326 129.595 359.481 129.595C359.666 129.595 359.79 129.065 359.79 128.417C359.79 127.769 359.945 127.239 360.1 127.239C360.286 127.239 360.41 126.709 360.41 126.062C360.41 125.414 360.564 124.884 360.719 124.884C360.905 124.884 361.029 124.295 361.029 123.559C361.029 122.823 361.184 122.235 361.339 122.235C361.524 122.235 361.648 121.499 361.648 120.615C361.648 119.114 361.71 118.996 362.36 118.996C363.073 118.996 363.073 119.055 362.856 120.556C362.515 122.853 361.741 126.209 360.874 129.153C359.666 133.363 359.419 134.011 358.985 134.011C358.675 134.011 358.552 133.657 358.552 132.833Z" fill="#4BB5B7"/>
<path d="M162.72 127.681C162.627 127.416 162.441 126.18 162.348 124.884C162.131 122.617 162.162 122.529 162.813 122.529C163.339 122.529 163.463 122.706 163.463 123.53C163.463 124.06 163.556 125.326 163.649 126.327C163.835 127.828 163.773 128.123 163.37 128.123C163.122 128.123 162.844 127.916 162.72 127.681Z" fill="#4BB5B7"/>
<path d="M362.268 116.347C362.268 115.022 362.33 114.875 362.98 114.875C363.599 114.875 363.661 114.992 363.568 116.347C363.475 117.554 363.351 117.819 362.856 117.819C362.36 117.819 362.268 117.583 362.268 116.347Z" fill="#4BB5B7"/>
<path d="M162.317 114.933C162.534 112.284 162.751 111.636 163.339 111.636C163.835 111.636 163.896 113.049 163.587 115.699C163.401 116.965 163.277 117.23 162.751 117.23C162.162 117.23 162.131 117.083 162.317 114.933Z" fill="#4BB5B7"/>
<path d="M163.308 108.339C163.432 107.632 163.649 106.955 163.773 106.779C163.896 106.631 164.082 105.895 164.206 105.189C164.33 104.482 164.671 103.334 165.011 102.657C165.352 101.95 165.847 100.743 166.095 99.978C166.869 97.7111 167.612 96.3274 168.077 96.3274C168.356 96.3274 168.449 96.6513 168.325 97.5933C168.17 98.8887 166.683 102.598 166.219 102.745C166.064 102.804 165.94 103.305 165.94 103.864C165.94 104.423 165.816 104.865 165.631 104.865C165.476 104.865 165.321 105.218 165.321 105.689C165.321 106.131 165.135 107.161 164.918 107.956C164.578 109.134 164.361 109.458 163.804 109.517C163.122 109.605 163.091 109.546 163.308 108.339Z" fill="#4BB5B7"/>
<path d="M362.268 101.479C362.268 99.7719 362.33 99.5658 362.887 99.5658C363.413 99.5658 363.506 99.7719 363.506 101.008C363.506 101.803 363.599 102.657 363.692 102.922C363.847 103.275 363.692 103.393 363.073 103.393C362.299 103.393 362.268 103.334 362.268 101.479Z" fill="#4BB5B7"/>
<path d="M361.648 96.9162C361.648 95.7975 361.772 95.4442 362.113 95.4442C362.639 95.4442 362.763 95.6797 363.011 97.2989C363.135 98.2999 363.104 98.3882 362.391 98.3882C361.71 98.3882 361.648 98.2705 361.648 96.9162Z" fill="#4BB5B7"/>
<path d="M168.603 94.6493C168.913 94.1783 169.316 93.56 169.501 93.2362C170.492 91.5287 171.297 90.4394 171.545 90.4394C172.01 90.4394 171.855 92.4119 171.359 92.9124C171.112 93.1479 170.895 93.4717 170.895 93.6484C170.895 93.825 170.678 93.9722 170.43 93.9722C170.152 93.9722 169.966 94.2372 169.966 94.7082C169.966 95.3265 169.811 95.4442 169.006 95.4442H168.046L168.603 94.6493Z" fill="#4BB5B7"/>
<path d="M173.992 87.2599C173.992 86.5828 182.6 79.2817 184.21 78.5751C184.458 78.4574 185.108 78.1041 185.604 77.7802C186.13 77.4858 186.905 77.0148 187.4 76.7793C188.236 76.3671 188.236 76.3671 188.236 77.1914C188.236 77.8097 188.05 78.1041 187.555 78.2513C187.183 78.3396 186.595 78.6929 186.254 78.9873C185.914 79.3111 185.325 79.5466 184.954 79.5466C184.582 79.5466 184.21 79.7821 184.149 80.0765C184.056 80.3415 183.591 80.7831 183.096 81.0186C182.6 81.2542 182.012 81.6957 181.795 81.9901C181.578 82.2551 181.114 82.4906 180.773 82.4906C180.464 82.4906 180.185 82.6967 180.185 82.9322C180.185 83.2266 179.844 83.3738 179.101 83.3738C178.079 83.3738 178.017 83.4327 178.017 84.3453C178.017 85.5818 176.097 87.4954 174.828 87.4954C174.363 87.4954 173.992 87.3777 173.992 87.2599Z" fill="#4BB5B7"/>
<path d="M237.875 80.371C237.473 80.1943 237.163 79.8705 237.163 79.6644C237.163 79.4583 236.73 79.2522 236.172 79.1934C235.305 79.1345 235.119 78.9578 235.057 78.3102C234.964 77.4564 235.491 77.1915 236.11 77.7508C236.265 77.9275 237.287 78.4868 238.402 79.0462C239.486 79.6055 240.446 80.2238 240.507 80.4004C240.662 80.8126 238.804 80.7831 237.875 80.371Z" fill="#4BB5B7"/>
<path d="M230.66 76.4554C230.66 75.6017 230.598 75.6311 231.868 76.0433C233.199 76.4849 233.137 77.1914 231.744 77.1914C230.784 77.1914 230.66 77.1031 230.66 76.4554Z" fill="#4BB5B7"/>
<path d="M227.563 75.7195C227.563 75.5723 227.192 75.4251 226.758 75.4251C225.675 75.4251 223.538 74.8068 223.538 74.483C223.538 74.3652 223.135 74.2475 222.609 74.2475C221.866 74.2475 221.68 74.1297 221.68 73.6292C221.68 73.0699 221.804 73.011 222.857 73.2171C224.869 73.5703 229.855 75.2484 229.979 75.6606C230.041 75.8961 229.7 76.0139 228.833 76.0139C228.121 76.0139 227.563 75.8961 227.563 75.7195Z" fill="#4BB5B7"/>
<path d="M194.739 74.3063C194.739 73.8647 195.482 73.3643 196.194 73.3643C196.69 73.3643 196.907 73.5409 196.907 73.9531C196.907 74.4241 196.69 74.5419 195.823 74.5419C195.235 74.5419 194.739 74.4241 194.739 74.3063Z" fill="#4BB5B7"/>
<path d="M217.128 73.4526C216.013 73.3642 215.796 73.217 215.796 72.7166C215.796 72.1572 215.92 72.1278 217.747 72.3044C220.41 72.5988 221.061 72.7754 221.061 73.2465C221.061 73.6586 220.193 73.7175 217.128 73.4526Z" fill="#4BB5B7"/>
<path d="M260.078 64.0318C260.078 63.8257 263.918 60.97 264.506 60.7345C264.661 60.6756 264.723 61.0878 264.661 61.6177C264.568 62.5304 264.476 62.6187 263.423 62.707C262.401 62.7953 262.246 62.9131 262.246 63.5313C262.246 64.1496 262.091 64.2379 261.162 64.2379C260.574 64.2379 260.078 64.1496 260.078 64.0318Z" fill="#4BB5B7"/>
<path d="M330.372 56.8779C328.762 56.083 327.244 55.4059 327.059 55.4059C326.842 55.4059 326.656 55.0526 326.656 54.6405C326.656 53.9928 326.749 53.9339 327.368 54.0811C329.195 54.5816 335.327 57.6728 335.327 58.1144C335.327 58.762 333.004 58.1732 330.372 56.8779Z" fill="#4BB5B7"/>
<path d="M274.385 55.6414C274.447 55.4648 274.725 55.1998 274.973 55.1115C275.221 54.9937 275.716 54.7582 276.119 54.5521C276.738 54.2577 276.8 54.2872 276.8 55.1115C276.8 55.9358 276.738 55.9947 275.531 55.9947C274.694 55.9947 274.323 55.8769 274.385 55.6414Z" fill="#4BB5B7"/>
<path d="M277.729 54.5521C277.729 54.0811 278.596 53.6101 279.711 53.4334C280.671 53.2862 280.826 53.3451 280.826 53.875C280.826 54.2283 280.547 54.5227 280.145 54.6405C279.092 54.9054 277.729 54.8465 277.729 54.5521Z" fill="#4BB5B7"/>
<path d="M286.4 51.8731C286.4 51.4609 286.617 51.2843 287.143 51.2843C287.546 51.2843 288.103 51.196 288.382 51.1077C288.753 50.9605 288.877 51.1077 288.877 51.6965C288.877 52.403 288.753 52.4619 287.638 52.4619C286.617 52.4619 286.4 52.3736 286.4 51.8731Z" fill="#4BB5B7"/>
<path d="M316.747 51.7553C316.747 51.1371 316.84 51.0782 317.738 51.2549C318.357 51.3726 318.791 51.667 318.853 51.9614C318.946 52.3441 318.729 52.4619 317.862 52.4619C316.902 52.4619 316.747 52.3736 316.747 51.7553Z" fill="#4BB5B7"/>
<path d="M236.141 259.778C234.81 258.394 234.438 255.715 234.252 246.177C234.19 244.322 234.004 241.79 233.819 240.583C233.633 239.376 233.385 237.521 233.323 236.462C233.23 235.402 233.106 234.077 233.014 233.518C232.921 232.958 232.828 232.281 232.797 232.046C232.766 231.81 232.611 231.457 232.456 231.251C232.301 231.045 232.239 230.75 232.363 230.574C232.487 230.397 232.425 230.073 232.208 229.838C232.023 229.631 231.837 229.013 231.837 228.483C231.806 227.953 231.62 227.188 231.403 226.805C231.187 226.393 231.094 225.922 231.156 225.716C231.248 225.539 231.001 224.597 230.598 223.626C230.227 222.684 229.948 221.742 229.979 221.535C230.01 221.359 229.917 221.123 229.731 221.006C229.576 220.917 229.421 220.593 229.421 220.299C229.421 220.005 229.019 218.974 228.492 217.973C227.997 216.972 227.563 216.06 227.563 215.971C227.563 215.854 227.068 214.764 226.449 213.528C225.86 212.291 225.334 211.173 225.303 210.996C225.272 210.849 225.179 210.643 225.086 210.554C224.993 210.466 224.095 209.082 223.104 207.463C222.082 205.844 220.534 203.518 219.605 202.252C218.707 201.016 217.964 199.897 217.964 199.75C217.964 199.632 217.592 199.191 217.19 198.808C216.756 198.425 216.416 197.954 216.416 197.748C216.416 197.512 215.982 197.041 215.456 196.688C214.805 196.247 214.558 195.893 214.65 195.511C214.743 195.187 214.65 194.863 214.496 194.745C214.279 194.657 214.248 194.716 214.372 194.892C214.496 195.098 214.465 195.246 214.341 195.246C214.186 195.246 213.443 194.568 212.7 193.715C211.925 192.861 210.842 191.683 210.315 191.095C209.758 190.506 209.293 189.917 209.293 189.77C209.293 189.623 207.064 187.385 204.37 184.824C201.645 182.233 199.477 180.025 199.57 179.878C199.663 179.76 199.539 179.731 199.322 179.79C199.074 179.878 198.579 179.642 198.207 179.289C197.867 178.906 196.814 178.023 195.947 177.287C193.067 174.932 181.702 164.01 181.888 163.774C181.95 163.627 181.454 162.979 180.711 162.332C178.76 160.536 178.017 159.77 178.017 159.564C178.017 159.182 176.128 156.679 175.819 156.679C175.664 156.679 175.54 156.473 175.54 156.208C175.54 155.943 175.013 155.178 174.363 154.471C173.713 153.765 172.815 152.469 172.319 151.557C171.855 150.674 171.235 149.761 170.988 149.584C170.616 149.29 166.993 142.695 167.21 142.695C167.427 142.695 166.405 140.252 166.002 139.84C165.754 139.545 165.507 139.074 165.476 138.809C165.445 138.515 165.29 137.926 165.073 137.514C164.887 137.072 164.64 136.13 164.547 135.453C164.423 134.747 164.237 134.04 164.082 133.893C163.927 133.746 163.896 133.481 163.958 133.275C164.051 133.068 163.989 132.803 163.804 132.715C163.618 132.597 163.556 132.332 163.68 132.097C163.773 131.832 163.711 131.479 163.556 131.273C162.162 129.624 161.976 111.666 163.308 108.839C163.804 107.809 164.299 105.895 164.33 104.894C164.361 104.512 164.516 104.1 164.702 103.982C164.887 103.864 165.011 103.599 164.98 103.364C164.949 103.128 165.135 102.48 165.414 101.921C166.683 99.2714 167.489 97.3873 167.489 97.034C167.489 96.4746 168.479 94.561 168.789 94.561C168.913 94.561 169.037 94.3844 169.037 94.1489C169.037 93.9428 169.254 93.5895 169.501 93.3834C169.749 93.1773 169.873 92.9124 169.78 92.7652C169.687 92.618 169.811 92.4119 170.09 92.3236C170.337 92.2353 170.678 91.7937 170.833 91.3815C171.235 90.2628 173.713 87.4954 177.026 84.4042C180.525 81.1364 181.361 80.4298 181.764 80.4298C181.919 80.4298 182.136 80.2238 182.229 79.9883C182.352 79.7527 182.538 79.6055 182.693 79.6939C182.817 79.7822 183.096 79.5761 183.281 79.2523C183.467 78.9284 183.901 78.6634 184.241 78.6634C184.582 78.6634 184.923 78.4574 185.016 78.2218C185.139 77.9863 185.294 77.8391 185.449 77.9275C185.573 77.9863 185.976 77.7803 186.316 77.4564C186.688 77.1326 186.997 76.9559 186.997 77.0737C186.997 77.1914 187.245 77.0737 187.555 76.8382C188.36 76.161 190.59 75.1307 191.271 75.1307C191.611 75.1307 192.695 74.7774 193.686 74.3358C194.708 73.9236 195.854 73.5115 196.287 73.4526C196.721 73.3937 198.238 73.1582 199.694 72.9521C201.149 72.7166 202.976 72.4516 203.781 72.3339C204.586 72.2455 205.33 72.0395 205.422 71.8628C205.67 71.539 211.213 71.539 213.938 71.8923C220.472 72.7166 223.197 73.2171 224.746 73.8647C225.334 74.1003 226.325 74.3947 227.006 74.4535C227.656 74.5419 228.276 74.7479 228.369 74.8657C228.461 75.0129 228.74 75.1307 228.988 75.1307C229.236 75.1307 229.948 75.3367 230.598 75.6017C231.217 75.8961 232.023 76.1611 232.363 76.2199C232.673 76.2788 233.416 76.5732 234.004 76.897C234.562 77.2209 235.212 77.4858 235.46 77.4858C235.677 77.4858 235.955 77.6919 236.048 77.9569C236.172 78.2218 236.327 78.3691 236.451 78.2807C236.544 78.163 237.039 78.369 237.504 78.6929C238.618 79.4583 241.901 80.7243 242.706 80.7243C243.047 80.7243 243.728 80.2532 244.192 79.6644C248.621 74.2475 257.136 65.7688 259.923 64.0024C260.574 63.5608 261.472 62.9131 261.874 62.5598C262.308 62.1771 262.772 61.8827 262.927 61.8827C263.082 61.8827 263.608 61.5294 264.073 61.0584C264.537 60.6168 265.343 60.0574 265.838 59.8219C266.333 59.5864 266.953 59.2331 267.262 58.9976C268.439 58.0849 274.88 54.9643 275.438 55.0526C275.623 55.0821 275.964 54.9054 276.181 54.6699C276.398 54.4344 276.862 54.2283 277.265 54.2283C277.636 54.2283 278.039 54.14 278.163 54.0222C278.287 53.875 278.534 53.7573 278.689 53.7573C278.844 53.7278 278.999 53.6984 279.061 53.6689C279.092 53.6101 279.432 53.5512 279.835 53.4629C280.206 53.404 280.857 53.139 281.228 52.9329C281.6 52.6974 282.529 52.403 283.303 52.2853C284.077 52.1675 284.851 51.9614 285.068 51.8142C285.285 51.6376 285.966 51.4904 286.616 51.4609C287.267 51.4315 287.948 51.3138 288.134 51.196C290.085 50.0478 303.555 49.3413 309.934 50.0184C311.885 50.2245 314.393 50.6072 315.508 50.8427C316.623 51.0782 317.8 51.3432 318.14 51.4021C321.299 51.9909 325.944 53.3746 327.492 54.1989C327.802 54.3755 330.062 55.4353 332.54 56.5835C342.108 61.0584 350.005 68.3006 356.167 78.2218C359.202 83.1089 363.228 94.561 362.67 96.6512C362.577 96.9751 362.701 97.4167 362.918 97.6816C363.166 97.976 363.32 98.8887 363.289 100.243C363.258 101.421 363.351 102.51 363.506 102.657C363.94 103.128 364.126 110.4 363.785 113.108C363.63 114.492 363.444 116.347 363.382 117.23C363.351 118.142 363.135 119.143 362.949 119.467C362.763 119.791 362.608 120.615 362.639 121.292C362.639 121.97 362.515 122.706 362.329 122.912C362.144 123.118 362.02 123.707 362.02 124.207C362.051 124.737 361.896 125.355 361.679 125.561C361.493 125.797 361.4 126.209 361.524 126.474C361.617 126.739 361.493 127.298 361.184 127.71C360.905 128.123 360.75 128.623 360.812 128.859C360.905 129.065 360.781 129.565 360.564 129.977C360.348 130.389 360.224 130.802 360.286 130.86C360.379 130.919 360.255 131.361 360.038 131.832C359.852 132.303 359.666 132.892 359.635 133.127C359.388 134.953 354.588 146.552 353.132 148.731C352.73 149.349 352.296 150.232 352.172 150.703C352.049 151.145 351.77 151.733 351.553 151.969C351.336 152.234 350.655 153.47 350.036 154.766C349.416 156.061 348.549 157.533 348.147 158.063C347.744 158.563 347.404 159.093 347.404 159.211C347.404 159.329 346.568 160.654 345.546 162.185C344.524 163.686 343.688 165.011 343.688 165.099C343.688 165.482 340.808 168.897 340.467 168.926C340.281 168.956 340.003 168.985 339.848 169.015C339.693 169.015 339.755 169.221 339.941 169.427C340.188 169.751 340.034 170.133 339.259 171.134C338.671 171.841 337.185 173.754 335.946 175.374C334.676 176.993 333.562 178.377 333.469 178.465C333.376 178.553 331.611 180.614 329.567 183.028C324.984 188.445 324.829 188.592 320.618 193.008C316.437 197.395 299.715 213.351 294.451 217.944C287.545 224.008 278.689 231.251 272 236.285C269.275 238.346 266.086 240.789 264.878 241.731C256.641 248.12 241.808 257.923 236.822 260.249C236.73 260.278 236.42 260.072 236.141 259.778Z" fill="#67B385"/>
<path d="M437.835 89.1255H456V201.287H524.727V217.844H437.835V89.1255Z" fill="black"/>
<path d="M570.62 172.268C570.62 178.083 572.056 183.306 574.927 187.935C577.923 192.445 581.856 196.005 586.725 198.617C591.594 201.228 597.087 202.533 603.204 202.533C609.571 202.533 615.251 201.228 620.245 198.617C625.239 196.005 629.172 192.445 632.043 187.935C634.914 183.306 636.35 178.083 636.35 172.268V89.1255H654.14V172.802C654.14 182.178 651.831 190.368 647.212 197.37C642.717 204.373 636.6 209.773 628.86 213.571C621.244 217.37 612.692 219.269 603.204 219.269C593.716 219.269 585.164 217.37 577.549 213.571C569.933 209.773 563.878 204.373 559.384 197.37C554.89 190.368 552.642 182.178 552.642 172.802V89.1255H570.62V172.268Z" fill="black"/>
<path d="M780.441 201.109H826.883V217.844H756.284L780.441 201.109ZM682.875 153.574C682.875 144.672 684.623 136.305 688.119 128.471C691.739 120.519 696.733 113.516 703.1 107.463C709.467 101.291 716.771 96.4842 725.01 93.0422C733.375 89.4816 742.364 87.7012 751.977 87.7012C761.465 87.7012 770.329 89.4816 778.568 93.0422C786.933 96.4842 794.299 101.291 800.666 107.463C807.157 113.516 812.214 120.519 815.834 128.471C819.455 136.305 821.265 144.672 821.265 153.574C821.265 162.713 819.455 171.259 815.834 179.211C812.214 187.163 807.157 194.166 800.666 200.219C794.299 206.153 786.933 210.842 778.568 214.284C770.329 217.607 761.465 219.269 751.977 219.269C742.364 219.269 733.375 217.607 725.01 214.284C716.771 210.96 709.467 206.331 703.1 200.397C696.733 194.462 691.739 187.519 688.119 179.567C684.623 171.615 682.875 162.95 682.875 153.574ZM701.602 153.752C701.602 160.517 702.913 166.867 705.535 172.802C708.156 178.617 711.777 183.78 716.396 188.291C721.015 192.801 726.384 196.302 732.501 198.795C738.618 201.287 745.235 202.533 752.351 202.533C759.342 202.533 765.897 201.287 772.014 198.795C778.131 196.302 783.437 192.801 787.932 188.291C792.426 183.78 795.984 178.617 798.606 172.802C801.227 166.867 802.538 160.458 802.538 153.574C802.538 146.927 801.227 140.637 798.606 134.702C795.984 128.768 792.363 123.605 787.744 119.213C783.125 114.703 777.757 111.202 771.639 108.709C765.522 106.098 758.968 104.793 751.977 104.793C744.86 104.793 738.244 106.098 732.126 108.709C726.009 111.202 720.641 114.703 716.021 119.213C711.402 123.723 707.844 128.946 705.347 134.88C702.85 140.815 701.602 147.105 701.602 153.752Z" fill="black"/>
<path d="M857.354 217.844V85.0307H857.542L928.515 180.813L920.838 179.389L991.624 85.0307H991.999V217.844H974.021V124.198L975.145 132.922L924.021 201.643H923.647L871.774 132.922L874.957 124.91V217.844H857.354Z" fill="black"/>
<path d="M1017.42 217.844L1076.6 83.7845H1077.72L1136.71 217.844H1115.92L1071.73 110.846L1084.65 102.834L1035.21 217.844H1017.42ZM1052.07 169.063H1102.44L1108.43 184.018H1046.82L1052.07 169.063Z" fill="black"/>
<path d="M1279.44 221.939L1174.76 120.994L1180 122.24L1180.37 217.844H1162.21V85.2087H1163.15L1266.7 186.51L1262.4 185.62L1262.02 89.1255H1280V221.939H1279.44Z" fill="black"/>
</svg>
